<?xml version="1.0" encoding="utf-8"?>
<!-- Generator: Adobe Illustrator 23.0.1, SVG Export Plug-In . SVG Version: 6.00 Build 0)  -->
<svg version="1.1" id="Layer_1" xmlns="http://www.w3.org/2000/svg" xmlns:xlink="http://www.w3.org/1999/xlink" x="0px" y="0px"
	 viewBox="0 0 104.1 73.3" style="enable-background:new 0 0 104.1 73.3;" xml:space="preserve">
<style type="text/css">
	.st0{fill:#FAFAFA;}
</style>
<path class="st0" d="M101.9,11.4c-1.2-4.5-4.7-8.1-9.2-9.3C84.6,0,52,0,52,0S19.5,0,11.4,2.2c-4.5,1.2-8,4.8-9.2,9.3
	C0,19.6,0,36.7,0,36.7s0,17,2.2,25.2c1.2,4.5,4.7,8.1,9.2,9.3c8.1,2.2,40.7,2.2,40.7,2.2s32.5,0,40.7-2.2c4.5-1.2,8-4.8,9.2-9.3
	c2.2-8.2,2.2-25.2,2.2-25.2S104.1,19.6,101.9,11.4z M41.4,52.1V21.2l27.2,15.5L41.4,52.1z"/>
</svg>
